<svg width="796" height="215" viewBox="0 0 796 215" fill="none" xmlns="http://www.w3.org/2000/svg">
<path d="M149.666 207.721C146.305 203.083 142.99 198.55 139.734 193.974C139.106 193.092 138.578 192.945 137.55 193.351C125.582 198.077 113.142 200.478 100.287 200.313C75.6754 199.998 53.9396 191.866 35.2109 175.804C33.4822 174.321 31.5267 173.123 30.1063 171.259C25.3533 165.023 26.1258 156.099 31.9365 150.91C37.762 145.707 46.8499 145.797 52.333 151.315C62.2306 161.276 74.2156 167.315 87.8778 169.716C109.607 173.536 129.246 168.483 146.297 154.329C158.449 144.242 166.462 131.38 169.83 115.939C174.877 92.7985 169.707 71.9681 154.38 53.8952C143.976 41.6281 130.709 33.9175 114.943 30.7425C98.6975 27.4708 83.1358 29.6501 68.3724 37.2318C65.4859 38.7142 62.5669 40.019 59.2942 40.32C54.1816 40.7903 49.5597 39.5749 45.8016 35.9767C39.7423 30.1753 40.6268 20.6988 47.7467 15.325C52.3433 11.8556 57.6044 9.55478 62.8901 7.38405C72.5619 3.41202 82.6195 1.04796 93.0677 0.294371C114.775 -1.27134 135.029 3.37945 153.474 14.949C177.398 29.9551 192.478 51.3844 198.708 79.0131C201.03 89.3079 201.529 99.7317 200.47 110.173C198.422 130.37 190.888 148.355 177.967 164.036C174.122 168.703 169.914 173.015 165.227 176.838C164.339 177.562 164.495 178.109 165.072 178.897C168.173 183.136 171.263 187.383 174.311 191.66C179.07 198.337 177.625 207.376 171.067 212.182C164.593 216.926 155.556 215.544 150.662 209.062C150.349 208.648 150.043 208.228 149.666 207.721Z" fill="#FEAA47"/>
<path d="M2.21883 79.0329C2.88538 76.0638 3.48522 73.2235 5.39163 70.8486C9.85761 65.2852 17.2797 63.4504 23.6558 66.3887C29.9606 69.2942 33.308 76.1177 31.618 83.1865C29.8584 90.5462 29.3758 97.9901 29.9015 105.479C30.4471 113.253 32.3615 120.758 35.5747 127.889C38.5837 134.567 36.5673 141.47 31.9715 145.389C24.2198 151.999 12.5059 149.173 8.46736 139.856C4.88574 131.594 2.38943 123.039 1.07798 114.166C-0.249756 105.183 -0.39173 96.167 0.879805 87.1461C1.2566 84.4729 1.61895 81.8017 2.21883 79.0329Z" fill="#202020"/>
<path d="M27.6045 35.1868C34.8449 33.9187 42.4166 39.2637 43.7222 46.4412C45.3071 55.1549 39.9736 62.5921 31.2298 63.8607C23.8391 64.933 16.7277 59.7002 15.2698 52.1167C13.7039 43.9719 19.1036 36.4928 27.6045 35.1868Z" fill="#202020"/>
<path d="M329.406 106.336C329.406 107.378 329.341 108.615 329.211 110.047C329.081 111.414 328.56 112.749 327.648 114.051C326.802 115.288 325.435 116.362 323.547 117.273C321.659 118.185 318.99 118.641 315.539 118.641H276.672V128.016C276.672 129.578 276.867 131.206 277.258 132.898C277.648 134.591 278.299 136.154 279.211 137.586C280.188 139.018 281.457 140.19 283.02 141.102C284.582 142.013 286.503 142.469 288.781 142.469C291.385 142.469 293.371 142.176 294.738 141.59C296.171 140.939 297.277 140.158 298.059 139.246C298.905 138.335 299.654 137.358 300.305 136.316C300.956 135.275 301.802 134.298 302.844 133.387C303.951 132.475 305.448 131.727 307.336 131.141C309.289 130.49 311.958 130.164 315.344 130.164C316.971 130.164 318.534 130.294 320.031 130.555C321.594 130.815 322.961 131.303 324.133 132.02C325.305 132.736 326.249 133.745 326.965 135.047C327.681 136.284 328.039 137.911 328.039 139.93C328.039 144.161 326.704 147.71 324.035 150.574C321.366 153.374 318.013 155.62 313.977 157.312C309.94 159.005 305.546 160.21 300.793 160.926C296.105 161.642 291.711 162 287.609 162C282.206 161.935 277.062 161.251 272.18 159.949C267.297 158.647 262.967 156.564 259.191 153.699C255.48 150.835 252.518 147.091 250.305 142.469C248.091 137.846 246.984 132.182 246.984 125.477V102.625C246.984 96.4401 247.701 91.1992 249.133 86.9023C250.63 82.6055 252.551 79.0247 254.895 76.1602C257.238 73.2956 259.875 71.082 262.805 69.5195C265.734 67.8919 268.697 66.6875 271.691 65.9062C274.686 65.125 277.518 64.6367 280.188 64.4414C282.922 64.2461 285.266 64.1484 287.219 64.1484C293.794 64.1484 299.393 64.7344 304.016 65.9062C308.703 67.0781 312.609 68.6081 315.734 70.4961C318.859 72.3841 321.333 74.5651 323.156 77.0391C324.979 79.513 326.346 82.0846 327.258 84.7539C328.169 87.3581 328.755 90.0273 329.016 92.7617C329.276 95.431 329.406 97.9375 329.406 100.281V106.336ZM276.672 103.992H301.086C301.086 100.932 300.988 98.2305 300.793 95.8867C300.663 93.4779 300.174 91.4596 299.328 89.832C298.547 88.2044 297.277 86.9674 295.52 86.1211C293.827 85.2747 291.385 84.8516 288.195 84.8516C285.526 84.8516 283.41 85.2747 281.848 86.1211C280.35 86.9674 279.211 88.0417 278.43 89.3438C277.648 90.5807 277.16 91.9154 276.965 93.3477C276.77 94.7799 276.672 96.0495 276.672 97.1562V103.992Z" fill="#202020"/>
<path d="M396.008 146.766C394.576 150.542 393.241 153.471 392.004 155.555C390.767 157.573 389.562 159.07 388.391 160.047C387.219 161.023 386.047 161.609 384.875 161.805C383.703 161.935 382.466 162 381.164 162C379.732 162 378.397 161.935 377.16 161.805C375.923 161.609 374.686 161.056 373.449 160.145C372.212 159.168 370.943 157.671 369.641 155.652C368.339 153.569 366.971 150.607 365.539 146.766L343.469 88.9531C342.883 87.3906 342.329 85.7305 341.809 83.9727C341.353 82.1497 341.125 80.3594 341.125 78.6016C341.125 76.7135 341.353 74.9232 341.809 73.2305C342.329 71.4727 343.143 69.9427 344.25 68.6406C345.357 67.3385 346.789 66.2969 348.547 65.5156C350.305 64.7344 352.453 64.3438 354.992 64.3438C356.815 64.3438 358.475 64.7344 359.973 65.5156C361.535 66.2969 362.902 67.3385 364.074 68.6406C365.311 69.9427 366.385 71.4401 367.297 73.1328C368.208 74.8255 368.924 76.5833 369.445 78.4062L380.383 113.953H381.945L392.102 78.4062C392.557 76.7786 393.208 75.1185 394.055 73.4258C394.901 71.7331 395.91 70.2357 397.082 68.9336C398.319 67.5664 399.751 66.4596 401.379 65.6133C403.072 64.7669 404.992 64.3438 407.141 64.3438C409.484 64.3438 411.47 64.7669 413.098 65.6133C414.725 66.3945 416.06 67.4688 417.102 68.8359C418.143 70.138 418.892 71.668 419.348 73.4258C419.803 75.1836 420.031 76.974 420.031 78.7969C420.031 80.4896 419.803 82.1823 419.348 83.875C418.957 85.5677 418.404 87.2604 417.688 88.9531L396.008 146.766Z" fill="#202020"/>
<path d="M514.562 106.336C514.562 107.378 514.497 108.615 514.367 110.047C514.237 111.414 513.716 112.749 512.805 114.051C511.958 115.288 510.591 116.362 508.703 117.273C506.815 118.185 504.146 118.641 500.695 118.641H461.828V128.016C461.828 129.578 462.023 131.206 462.414 132.898C462.805 134.591 463.456 136.154 464.367 137.586C465.344 139.018 466.613 140.19 468.176 141.102C469.738 142.013 471.659 142.469 473.938 142.469C476.542 142.469 478.527 142.176 479.895 141.59C481.327 140.939 482.434 140.158 483.215 139.246C484.061 138.335 484.81 137.358 485.461 136.316C486.112 135.275 486.958 134.298 488 133.387C489.107 132.475 490.604 131.727 492.492 131.141C494.445 130.49 497.115 130.164 500.5 130.164C502.128 130.164 503.69 130.294 505.188 130.555C506.75 130.815 508.117 131.303 509.289 132.02C510.461 132.736 511.405 133.745 512.121 135.047C512.837 136.284 513.195 137.911 513.195 139.93C513.195 144.161 511.861 147.71 509.191 150.574C506.522 153.374 503.169 155.62 499.133 157.312C495.096 159.005 490.702 160.21 485.949 160.926C481.262 161.642 476.867 162 472.766 162C467.362 161.935 462.219 161.251 457.336 159.949C452.453 158.647 448.124 156.564 444.348 153.699C440.637 150.835 437.674 147.091 435.461 142.469C433.247 137.846 432.141 132.182 432.141 125.477V102.625C432.141 96.4401 432.857 91.1992 434.289 86.9023C435.786 82.6055 437.707 79.0247 440.051 76.1602C442.395 73.2956 445.031 71.082 447.961 69.5195C450.891 67.8919 453.853 66.6875 456.848 65.9062C459.842 65.125 462.674 64.6367 465.344 64.4414C468.078 64.2461 470.422 64.1484 472.375 64.1484C478.951 64.1484 484.549 64.7344 489.172 65.9062C493.859 67.0781 497.766 68.6081 500.891 70.4961C504.016 72.3841 506.49 74.5651 508.312 77.0391C510.135 79.513 511.503 82.0846 512.414 84.7539C513.326 87.3581 513.911 90.0273 514.172 92.7617C514.432 95.431 514.562 97.9375 514.562 100.281V106.336ZM461.828 103.992H486.242C486.242 100.932 486.145 98.2305 485.949 95.8867C485.819 93.4779 485.331 91.4596 484.484 89.832C483.703 88.2044 482.434 86.9674 480.676 86.1211C478.983 85.2747 476.542 84.8516 473.352 84.8516C470.682 84.8516 468.566 85.2747 467.004 86.1211C465.507 86.9674 464.367 88.0417 463.586 89.3438C462.805 90.5807 462.316 91.9154 462.121 93.3477C461.926 94.7799 461.828 96.0495 461.828 97.1562V103.992Z" fill="#202020"/>
<path d="M617.102 139.734C617.102 142.534 616.939 145.268 616.613 147.938C616.288 150.607 615.572 152.983 614.465 155.066C613.423 157.15 611.893 158.842 609.875 160.145C607.922 161.382 605.253 162 601.867 162C598.547 162 595.91 161.382 593.957 160.145C592.004 158.842 590.507 157.15 589.465 155.066C588.423 152.983 587.74 150.607 587.414 147.938C587.154 145.268 587.023 142.534 587.023 139.734V101.648C587.023 99.8255 586.926 98.0352 586.73 96.2773C586.6 94.5195 586.242 92.9896 585.656 91.6875C585.07 90.3203 584.191 89.2461 583.02 88.4648C581.913 87.6185 580.383 87.1953 578.43 87.1953C575.76 87.1953 573.612 88.0742 571.984 89.832C570.357 91.5898 569.055 93.9987 568.078 97.0586C567.167 100.118 566.548 103.732 566.223 107.898C565.897 112 565.734 116.427 565.734 121.18V139.734C565.734 142.534 565.572 145.268 565.246 147.938C564.921 150.607 564.204 152.983 563.098 155.066C562.056 157.15 560.526 158.842 558.508 160.145C556.555 161.382 553.885 162 550.5 162C547.18 162 544.543 161.382 542.59 160.145C540.637 158.842 539.139 157.15 538.098 155.066C537.056 152.983 536.372 150.607 536.047 147.938C535.786 145.268 535.656 142.534 535.656 139.734V86.4141C535.656 83.6146 535.754 80.9128 535.949 78.3086C536.145 75.6393 536.73 73.2956 537.707 71.2773C538.684 69.194 540.148 67.5339 542.102 66.2969C544.12 64.9948 546.919 64.3438 550.5 64.3438C554.081 64.3438 556.88 64.9622 558.898 66.1992C560.917 67.3711 562.414 68.8034 563.391 70.4961C564.432 72.1888 565.083 73.9792 565.344 75.8672C565.604 77.7552 565.734 79.3828 565.734 80.75C566.255 78.862 567.069 76.9414 568.176 74.9883C569.283 73.0352 570.682 71.2773 572.375 69.7148C574.133 68.1523 576.216 66.8828 578.625 65.9062C581.034 64.8646 583.833 64.3438 587.023 64.3438C590.604 64.3438 594.185 64.9297 597.766 66.1016C601.346 67.2734 604.569 69.2266 607.434 71.9609C610.298 74.6953 612.609 78.276 614.367 82.7031C616.19 87.1302 617.102 92.599 617.102 99.1094V139.734Z" fill="#202020"/>
<path d="M653.625 64.3438V47.1562C653.625 44.4219 653.755 41.7526 654.016 39.1484C654.341 36.5443 655.025 34.2331 656.066 32.2148C657.108 30.1315 658.605 28.4714 660.559 27.2344C662.512 25.9323 665.148 25.2812 668.469 25.2812C671.724 25.2812 674.328 25.9323 676.281 27.2344C678.234 28.4714 679.699 30.1315 680.676 32.2148C681.717 34.2331 682.368 36.5443 682.629 39.1484C682.954 41.7526 683.117 44.4219 683.117 47.1562V64.3438H691.125C692.818 64.3438 694.51 64.4414 696.203 64.6367C697.896 64.7669 699.393 65.2227 700.695 66.0039C702.062 66.7852 703.137 67.957 703.918 69.5195C704.764 71.082 705.188 73.263 705.188 76.0625C705.188 78.7318 704.764 80.8477 703.918 82.4102C703.137 83.9727 702.062 85.1445 700.695 85.9258C699.393 86.707 697.896 87.2279 696.203 87.4883C694.51 87.6836 692.818 87.7812 691.125 87.7812H683.117V121.961C683.117 123.263 683.15 124.663 683.215 126.16C683.345 127.592 683.703 128.927 684.289 130.164C684.875 131.401 685.754 132.443 686.926 133.289C688.098 134.07 689.758 134.461 691.906 134.461C694.25 134.461 696.236 134.656 697.863 135.047C699.556 135.372 700.923 135.991 701.965 136.902C703.072 137.814 703.885 139.083 704.406 140.711C704.927 142.339 705.188 144.422 705.188 146.961C705.188 149.565 704.569 151.811 703.332 153.699C702.16 155.587 700.565 157.15 698.547 158.387C696.529 159.624 694.185 160.535 691.516 161.121C688.846 161.707 686.047 162 683.117 162C678.495 162 674.523 161.512 671.203 160.535C667.948 159.559 665.214 158.191 663 156.434C660.852 154.611 659.126 152.462 657.824 149.988C656.587 147.449 655.643 144.617 654.992 141.492C654.406 138.367 654.016 135.014 653.82 131.434C653.69 127.788 653.625 123.979 653.625 120.008V87.7812H648.156C646.464 87.7812 644.771 87.6836 643.078 87.4883C641.451 87.2279 639.986 86.707 638.684 85.9258C637.382 85.1445 636.307 83.9727 635.461 82.4102C634.68 80.8477 634.289 78.7318 634.289 76.0625C634.289 73.263 634.68 71.082 635.461 69.5195C636.307 67.957 637.382 66.7852 638.684 66.0039C639.986 65.2227 641.451 64.7669 643.078 64.6367C644.771 64.4414 646.464 64.3438 648.156 64.3438H653.625Z" fill="#202020"/>
<path d="M751.086 89.9297C751.086 91.2318 751.509 92.4362 752.355 93.543C753.202 94.6497 754.341 95.724 755.773 96.7656C757.271 97.7422 758.964 98.7188 760.852 99.6953C762.805 100.672 764.823 101.648 766.906 102.625C770.096 104.188 773.352 105.88 776.672 107.703C779.992 109.461 783.02 111.544 785.754 113.953C788.488 116.362 790.702 119.161 792.395 122.352C794.152 125.477 795.031 129.188 795.031 133.484C795.031 137.391 794.445 140.841 793.273 143.836C792.167 146.831 790.669 149.435 788.781 151.648C786.893 153.797 784.68 155.587 782.141 157.02C779.667 158.452 777.03 159.591 774.23 160.438C771.496 161.284 768.697 161.87 765.832 162.195C762.967 162.586 760.266 162.781 757.727 162.781C752.714 162.781 748.352 162.358 744.641 161.512C740.93 160.665 737.74 159.559 735.07 158.191C732.401 156.759 730.188 155.164 728.43 153.406C726.737 151.583 725.402 149.695 724.426 147.742C723.449 145.789 722.766 143.868 722.375 141.98C721.984 140.027 721.789 138.237 721.789 136.609C721.789 132.703 722.863 129.839 725.012 128.016C727.225 126.193 730.578 125.281 735.07 125.281C738.326 125.281 740.995 126.16 743.078 127.918C745.161 129.676 746.268 132.508 746.398 136.414C746.464 137.716 746.822 138.758 747.473 139.539C748.189 140.32 749.068 140.971 750.109 141.492C751.216 141.948 752.421 142.273 753.723 142.469C755.025 142.599 756.294 142.664 757.531 142.664C760.07 142.664 762.121 142.013 763.684 140.711C765.311 139.344 766.125 137.586 766.125 135.438C766.125 133.615 765.572 131.922 764.465 130.359C763.423 128.732 762.023 127.234 760.266 125.867C758.508 124.5 756.49 123.198 754.211 121.961C751.997 120.659 749.719 119.357 747.375 118.055C744.445 116.492 741.483 114.832 738.488 113.074C735.559 111.316 732.889 109.363 730.48 107.215C728.072 105.066 726.118 102.658 724.621 99.9883C723.124 97.2539 722.375 94.1615 722.375 90.7109C722.375 85.6328 723.189 81.401 724.816 78.0156C726.509 74.5651 728.951 71.7982 732.141 69.7148C735.331 67.5664 739.204 66.0365 743.762 65.125C748.384 64.2135 753.625 63.6927 759.484 63.5625H761.047C766.32 63.5625 770.78 64.0182 774.426 64.9297C778.137 65.8411 781.197 67.0456 783.605 68.543C786.079 69.9753 788 71.6029 789.367 73.4258C790.799 75.2487 791.841 77.1042 792.492 78.9922C793.208 80.8151 793.632 82.5729 793.762 84.2656C793.957 85.9583 794.055 87.3906 794.055 88.5625C794.055 90.5156 793.632 92.1432 792.785 93.4453C792.004 94.6823 790.93 95.6914 789.562 96.4727C788.26 97.1888 786.763 97.7096 785.07 98.0352C783.378 98.2956 781.62 98.4583 779.797 98.5234C778.234 98.5234 776.802 98.263 775.5 97.7422C774.263 97.2214 773.189 96.5703 772.277 95.7891C771.366 95.0078 770.65 94.1289 770.129 93.1523C769.673 92.1758 769.445 91.2318 769.445 90.3203C769.315 87.8464 768.306 85.9583 766.418 84.6562C764.595 83.3542 762.349 82.7031 759.68 82.7031C758.573 82.7031 757.499 82.8333 756.457 83.0938C755.48 83.2891 754.569 83.6797 753.723 84.2656C752.941 84.7865 752.29 85.5026 751.77 86.4141C751.314 87.3255 751.086 88.4974 751.086 89.9297Z" fill="#202020"/>
</svg>
